<svg width="450" height="11" viewBox="0 0 450 11" fill="none" xmlns="http://www.w3.org/2000/svg">
<path d="M0 6H203.5" stroke="#929292"/>
<path d="M243 6H450" stroke="#929292"/>
<path d="M220.012 10.156C217.256 10.156 215.449 7.959 215.449 5.476V5.45C215.449 2.954 217.282 0.744 220.038 0.744C222.794 0.744 224.601 2.941 224.601 5.424V5.45C224.601 7.946 222.768 10.156 220.012 10.156ZM220.038 9.545C222.287 9.545 223.899 7.725 223.899 5.476V5.45C223.899 3.201 222.261 1.355 220.012 1.355C217.763 1.355 216.151 3.175 216.151 5.424V5.45C216.151 7.699 217.789 9.545 220.038 9.545ZM229.276 10.156C227.599 10.156 226.624 9.025 226.624 7.426V3.37H227.261V7.309C227.261 8.674 228.015 9.571 229.367 9.571C230.667 9.571 231.668 8.596 231.668 7.205V3.37H232.305V10H231.668V8.765C231.213 9.545 230.485 10.156 229.276 10.156Z" fill="#929292"/>
</svg>
